<svg width="24" height="25" viewBox="0 0 24 25" fill="none" xmlns="http://www.w3.org/2000/svg">
<path d="M8 4.5H7.2C6.08 4.5 5.52 4.5 5.092 4.718C4.71565 4.90969 4.40969 5.21565 4.218 5.592C4 6.02 4 6.58 4 7.7V8.5M8 4.5H16M8 4.5V2.5M4 8.5V17.3C4 18.42 4 18.98 4.218 19.408C4.40974 19.7843 4.71569 20.0903 5.092 20.282C5.519 20.5 6.079 20.5 7.197 20.5H16.803C17.921 20.5 18.48 20.5 18.907 20.282C19.284 20.09 19.59 19.784 19.782 19.408C20 18.98 20 18.422 20 17.304V8.5M4 8.5H20M16 4.5H16.8C17.92 4.5 18.48 4.5 18.907 4.718C19.284 4.91 19.59 5.215 19.782 5.592C20 6.019 20 6.579 20 7.697V8.5M16 4.5V2.5M16 16.5H16.002V16.502H16V16.5ZM12 16.5H12.002V16.502H12V16.5ZM8 16.5H8.002V16.502H8V16.5ZM16.002 12.5V12.502H16V12.5H16.002ZM12 12.5H12.002V12.502H12V12.5ZM8 12.5H8.002V12.502H8V12.5Z" stroke="#FF6100" stroke-width="2" stroke-linecap="round" stroke-linejoin="round"/>
</svg>
