<svg width="17" height="16" viewBox="0 0 17 16" fill="none" xmlns="http://www.w3.org/2000/svg">
<path fill-rule="evenodd" clip-rule="evenodd" d="M8.1665 1.5C8.1665 1.5 9.4885 1.5 10.6965 2.011C10.6965 2.011 11.8635 2.5045 12.7625 3.404C12.7625 3.404 13.6625 4.303 14.1555 5.47C14.1555 5.47 14.6665 6.678 14.6665 8C14.6665 8 14.6665 9.322 14.1555 10.53C14.1555 10.53 13.662 11.697 12.7625 12.596C12.7625 12.596 11.8635 13.496 10.697 13.989C10.697 13.989 9.4885 14.5 8.1665 14.5C8.1665 14.5 6.8445 14.5 5.6365 13.989C5.6365 13.989 4.4695 13.4955 3.5705 12.596C3.5705 12.596 2.6705 11.697 2.1775 10.5305C2.1775 10.53 1.6665 9.322 1.6665 8C1.6665 8 1.6665 6.678 2.1775 5.47C2.1775 5.47 2.671 4.303 3.5705 3.404C3.5705 3.404 4.4695 2.504 5.6365 2.011C5.6365 2.011 6.8445 1.5 8.1665 1.5ZM8.1665 2.5C8.1665 2.5 7.047 2.5 6.026 2.932C6.026 2.932 5.039 3.3495 4.2775 4.111C4.2775 4.111 3.516 4.8725 3.0985 5.8595C3.0985 5.8595 2.6665 6.8805 2.6665 8C2.6665 8 2.6665 9.1195 3.0985 10.1405C3.0985 10.1405 3.516 11.1275 4.2775 11.889C4.2775 11.889 5.039 12.6505 6.026 13.068C6.026 13.068 7.047 13.5 8.1665 13.5C8.1665 13.5 9.286 13.5 10.307 13.068C10.307 13.068 11.294 12.6505 12.0555 11.889C12.0555 11.889 12.817 11.1275 13.2345 10.1405C13.2345 10.1405 13.6665 9.1195 13.6665 8C13.6665 8 13.6665 6.8805 13.2345 5.8595C13.2345 5.8595 12.817 4.8725 12.0555 4.111C12.0555 4.111 11.294 3.3495 10.307 2.932C10.307 2.932 9.286 2.5 8.1665 2.5Z" fill="#FF6100"/>
<path d="M7.6665 7.00001V14C7.6665 14.1326 7.71918 14.2598 7.81295 14.3536C7.90672 14.4473 8.0339 14.5 8.1665 14.5C8.29911 14.5 8.42629 14.4473 8.52006 14.3536C8.61383 14.2598 8.6665 14.1326 8.6665 14V7.00001C8.6655 6.79901 8.7415 6.61501 8.7415 6.61501C8.817 6.43151 8.9575 6.29101 8.9575 6.29101C9.09801 6.15051 9.28201 6.07501 9.28201 6.07501C9.46551 5.99901 9.6645 6.00001 9.6645 6.00001H10.6665C10.7991 6.00001 10.9263 5.94733 11.0201 5.85356C11.1138 5.7598 11.1665 5.63262 11.1665 5.50001C11.1665 5.3674 11.1138 5.24023 11.0201 5.14646C10.9263 5.05269 10.7991 5.00001 10.6665 5.00001H9.6685C9.27 4.99851 8.901 5.15001 8.901 5.15001C8.5325 5.30201 8.2505 5.58401 8.2505 5.58401C7.9685 5.86601 7.8165 6.23451 7.8165 6.23451C7.665 6.60351 7.6665 7.00001 7.6665 7.00001Z" fill="#FF6100"/>
<path d="M6.1665 9.5H10.1665C10.2991 9.5 10.4263 9.44732 10.5201 9.35355C10.6138 9.25979 10.6665 9.13261 10.6665 9C10.6665 8.86739 10.6138 8.74021 10.5201 8.64645C10.4263 8.55268 10.2991 8.5 10.1665 8.5H6.1665C6.0339 8.5 5.90672 8.55268 5.81295 8.64645C5.71918 8.74021 5.6665 8.86739 5.6665 9C5.6665 9.13261 5.71918 9.25979 5.81295 9.35355C5.90672 9.44732 6.0339 9.5 6.1665 9.5Z" fill="#FF6100"/>
</svg>
