<svg width="16" height="17" viewBox="0 0 16 17" fill="none" xmlns="http://www.w3.org/2000/svg">
<path fill-rule="evenodd" clip-rule="evenodd" d="M8 2C8 2 9.322 2 10.53 2.511C10.53 2.511 11.697 3.0045 12.596 3.904C12.596 3.904 13.496 4.803 13.989 5.97C13.989 5.97 14.5 7.178 14.5 8.5C14.5 8.5 14.5 9.822 13.989 11.03C13.989 11.03 13.4955 12.197 12.596 13.096C12.596 13.096 11.697 13.996 10.5305 14.489C10.5305 14.489 9.322 15 8 15C8 15 6.678 15 5.47 14.489C5.47 14.489 4.303 13.9955 3.404 13.096C3.404 13.096 2.504 12.197 2.011 11.0305C2.011 11.03 1.5 9.822 1.5 8.5C1.5 8.5 1.5 7.178 2.011 5.97C2.011 5.97 2.5045 4.803 3.404 3.904C3.404 3.904 4.303 3.004 5.47 2.511C5.47 2.511 6.678 2 8 2ZM8 3C8 3 6.8805 3 5.8595 3.432C5.8595 3.432 4.8725 3.8495 4.111 4.611C4.111 4.611 3.3495 5.3725 2.932 6.3595C2.932 6.3595 2.5 7.3805 2.5 8.5C2.5 8.5 2.5 9.6195 2.932 10.6405C2.932 10.6405 3.3495 11.6275 4.111 12.389C4.111 12.389 4.8725 13.1505 5.8595 13.568C5.8595 13.568 6.8805 14 8 14C8 14 9.1195 14 10.1405 13.568C10.1405 13.568 11.1275 13.1505 11.889 12.389C11.889 12.389 12.6505 11.6275 13.068 10.6405C13.068 10.6405 13.5 9.6195 13.5 8.5C13.5 8.5 13.5 7.3805 13.068 6.3595C13.068 6.3595 12.6505 5.3725 11.889 4.611C11.889 4.611 11.1275 3.8495 10.1405 3.432C10.1405 3.432 9.1195 3 8 3Z" fill="#FF6100"/>
<path d="M7.5 7.50001V14.5C7.5 14.6326 7.55268 14.7598 7.64645 14.8536C7.74022 14.9473 7.86739 15 8 15C8.13261 15 8.25979 14.9473 8.35355 14.8536C8.44732 14.7598 8.5 14.6326 8.5 14.5V7.50001C8.499 7.29901 8.575 7.11501 8.575 7.11501C8.6505 6.93151 8.791 6.79101 8.791 6.79101C8.9315 6.65051 9.1155 6.57501 9.1155 6.57501C9.299 6.49901 9.498 6.50001 9.498 6.50001H10.5C10.6326 6.50001 10.7598 6.44733 10.8536 6.35356C10.9473 6.2598 11 6.13262 11 6.00001C11 5.8674 10.9473 5.74023 10.8536 5.64646C10.7598 5.55269 10.6326 5.50001 10.5 5.50001H9.502C9.1035 5.49851 8.7345 5.65001 8.7345 5.65001C8.366 5.80201 8.084 6.08401 8.084 6.08401C7.802 6.36601 7.65 6.73451 7.65 6.73451C7.4985 7.10351 7.5 7.50001 7.5 7.50001Z" fill="#FF6100"/>
<path d="M6 10H10C10.1326 10 10.2598 9.94732 10.3536 9.85355C10.4473 9.75979 10.5 9.63261 10.5 9.5C10.5 9.36739 10.4473 9.24021 10.3536 9.14645C10.2598 9.05268 10.1326 9 10 9H6C5.86739 9 5.74021 9.05268 5.64645 9.14645C5.55268 9.24021 5.5 9.36739 5.5 9.5C5.5 9.63261 5.55268 9.75979 5.64645 9.85355C5.74021 9.94732 5.86739 10 6 10Z" fill="#FF6100"/>
</svg>
