<svg width="16" height="17" viewBox="0 0 16 17" fill="none" xmlns="http://www.w3.org/2000/svg">
<path fill-rule="evenodd" clip-rule="evenodd" d="M8.00024 2C8.00024 2 9.32224 2 10.5302 2.511C10.5302 2.511 11.6972 3.0045 12.5962 3.904C12.5962 3.904 13.4962 4.803 13.9892 5.97C13.9892 5.97 14.5002 7.178 14.5002 8.5C14.5002 8.5 14.5002 9.822 13.9892 11.03C13.9892 11.03 13.4957 12.197 12.5962 13.096C12.5962 13.096 11.6972 13.996 10.5307 14.489C10.5307 14.489 9.32224 15 8.00024 15C8.00024 15 6.67824 15 5.47024 14.489C5.47024 14.489 4.30324 13.9955 3.40424 13.096C3.40424 13.096 2.50424 12.197 2.01124 11.0305C2.01124 11.03 1.50024 9.822 1.50024 8.5C1.50024 8.5 1.50024 7.178 2.01124 5.97C2.01124 5.97 2.50474 4.803 3.40424 3.904C3.40424 3.904 4.30324 3.004 5.47024 2.511C5.47024 2.511 6.67824 2 8.00024 2ZM8.00024 3C8.00024 3 6.88074 3 5.85974 3.432C5.85974 3.432 4.87274 3.8495 4.11124 4.611C4.11124 4.611 3.34974 5.3725 2.93224 6.3595C2.93224 6.3595 2.50024 7.3805 2.50024 8.5C2.50024 8.5 2.50024 9.6195 2.93224 10.6405C2.93224 10.6405 3.34974 11.6275 4.11124 12.389C4.11124 12.389 4.87274 13.1505 5.85974 13.568C5.85974 13.568 6.88074 14 8.00024 14C8.00024 14 9.11974 14 10.1407 13.568C10.1407 13.568 11.1277 13.1505 11.8892 12.389C11.8892 12.389 12.6507 11.6275 13.0682 10.6405C13.0682 10.6405 13.5002 9.6195 13.5002 8.5C13.5002 8.5 13.5002 7.3805 13.0682 6.3595C13.0682 6.3595 12.6507 5.3725 11.8892 4.611C11.8892 4.611 11.1277 3.8495 10.1407 3.432C10.1407 3.432 9.11974 3 8.00024 3Z" fill="black"/>
<path d="M7.50024 7.50001V14.5C7.50024 14.6326 7.55292 14.7598 7.64669 14.8536C7.74046 14.9473 7.86764 15 8.00024 15C8.13285 15 8.26003 14.9473 8.3538 14.8536C8.44757 14.7598 8.50024 14.6326 8.50024 14.5V7.50001C8.49924 7.29901 8.57524 7.11501 8.57524 7.11501C8.65074 6.93151 8.79125 6.79101 8.79125 6.79101C8.93175 6.65051 9.11575 6.57501 9.11575 6.57501C9.29925 6.49901 9.49825 6.50001 9.49825 6.50001H10.5002C10.6329 6.50001 10.76 6.44733 10.8538 6.35356C10.9476 6.2598 11.0002 6.13262 11.0002 6.00001C11.0002 5.8674 10.9476 5.74023 10.8538 5.64646C10.76 5.55269 10.6329 5.50001 10.5002 5.50001H9.50224C9.10374 5.49851 8.73474 5.65001 8.73474 5.65001C8.36624 5.80201 8.08424 6.08401 8.08424 6.08401C7.80224 6.36601 7.65024 6.73451 7.65024 6.73451C7.49874 7.10351 7.50024 7.50001 7.50024 7.50001Z" fill="black"/>
<path d="M6.00024 10H10.0002C10.1329 10 10.26 9.94732 10.3538 9.85355C10.4476 9.75979 10.5002 9.63261 10.5002 9.5C10.5002 9.36739 10.4476 9.24021 10.3538 9.14645C10.26 9.05268 10.1329 9 10.0002 9H6.00024C5.86764 9 5.74046 9.05268 5.64669 9.14645C5.55292 9.24021 5.50024 9.36739 5.50024 9.5C5.50024 9.63261 5.55292 9.75979 5.64669 9.85355C5.74046 9.94732 5.86764 10 6.00024 10Z" fill="black"/>
</svg>
