<svg width="18" height="18" viewBox="0 0 18 18" fill="none" xmlns="http://www.w3.org/2000/svg">
<path d="M9 17.9999H1.125C0.504 17.9999 0 17.3268 0 16.4975C0 15.6682 0.504 14.9951 1.125 14.9951H9C9.621 14.9951 10.125 15.6682 10.125 16.4975C10.125 17.3268 9.621 17.9999 9 17.9999Z" fill="#F5F5F5"/>
<path d="M16.875 3.00476H9C8.379 3.00476 7.875 2.33169 7.875 1.50238C7.875 0.673066 8.379 0 9 0H16.875C17.496 0 18 0.673066 18 1.50238C18 2.33319 17.496 3.00476 16.875 3.00476Z" fill="#F5F5F5"/>
<path d="M16.875 10.4879H1.125C0.504 10.4879 0 9.81485 0 8.98553C0 8.15622 0.504 7.48315 1.125 7.48315H16.875C17.496 7.48315 18 8.15622 18 8.98553C18 9.81485 17.496 10.4879 16.875 10.4879Z" fill="#F5F5F5"/>
</svg>
