<svg width="16" height="17" viewBox="0 0 16 17" fill="none" xmlns="http://www.w3.org/2000/svg">
<path fill-rule="evenodd" clip-rule="evenodd" d="M8 5.5C8 5.5 9.2425 5.5 10.1215 6.3785C10.1215 6.3785 11 7.2575 11 8.5C11 8.5 11 9.7425 10.1215 10.6215C10.1215 10.6215 9.2425 11.5 8 11.5C8 11.5 6.7575 11.5 5.8785 10.6215C5.8785 10.6215 5 9.7425 5 8.5C5 8.5 5 7.2575 5.8785 6.3785C5.8785 6.3785 6.7575 5.5 8 5.5ZM8 6.5C8 6.5 7.1715 6.5 6.586 7.086C6.586 7.086 6 7.6715 6 8.5C6 8.5 6 9.3285 6.586 9.914C6.586 9.914 7.1715 10.5 8 10.5C8 10.5 8.8285 10.5 9.414 9.914C9.414 9.914 10 9.3285 10 8.5C10 8.5 10 7.6715 9.414 7.086C9.414 7.086 8.8285 6.5 8 6.5Z" fill="#FF6100"/>
<path fill-rule="evenodd" clip-rule="evenodd" d="M1.75 5.75C1.75 5.75 1.75 4.3 2.775 3.275C2.775 3.275 3.8 2.25 5.25 2.25H10.75C10.75 2.25 12.2 2.25 13.225 3.275C13.225 3.275 14.25 4.3 14.25 5.75V11.25C14.25 11.25 14.25 12.7 13.225 13.725C13.225 13.725 12.2 14.75 10.75 14.75H5.25C5.25 14.75 3.8 14.75 2.775 13.725C2.775 13.725 1.75 12.7 1.75 11.25V5.75ZM2.75 5.75V11.25C2.75 11.25 2.75 12.2855 3.482 13.0175C3.482 13.0175 4.2145 13.75 5.25 13.75H10.75C10.75 13.75 11.7855 13.75 12.5175 13.0175C12.5175 13.0175 13.25 12.2855 13.25 11.25V5.75C13.25 5.75 13.25 4.7145 12.5175 3.982C12.5175 3.982 11.7855 3.25 10.75 3.25H5.25C5.25 3.25 4.2145 3.25 3.482 3.982C3.482 3.982 2.75 4.7145 2.75 5.75Z" fill="#FF6100"/>
<path d="M12 5.25C12 5.44891 11.921 5.63968 11.7803 5.78033C11.6397 5.92098 11.4489 6 11.25 6C11.0511 6 10.8603 5.92098 10.7197 5.78033C10.579 5.63968 10.5 5.44891 10.5 5.25C10.5 5.05109 10.579 4.86032 10.7197 4.71967C10.8603 4.57902 11.0511 4.5 11.25 4.5C11.4489 4.5 11.6397 4.57902 11.7803 4.71967C11.921 4.86032 12 5.05109 12 5.25Z" fill="#FF6100"/>
</svg>
