<svg width="17" height="16" viewBox="0 0 17 16" fill="none" xmlns="http://www.w3.org/2000/svg">
<path fill-rule="evenodd" clip-rule="evenodd" d="M8.1665 5C8.1665 5 9.409 5 10.288 5.8785C10.288 5.8785 11.1665 6.7575 11.1665 8C11.1665 8 11.1665 9.2425 10.288 10.1215C10.288 10.1215 9.409 11 8.1665 11C8.1665 11 6.924 11 6.045 10.1215C6.045 10.1215 5.1665 9.2425 5.1665 8C5.1665 8 5.1665 6.7575 6.045 5.8785C6.045 5.8785 6.924 5 8.1665 5ZM8.1665 6C8.1665 6 7.338 6 6.7525 6.586C6.7525 6.586 6.1665 7.1715 6.1665 8C6.1665 8 6.1665 8.8285 6.7525 9.414C6.7525 9.414 7.338 10 8.1665 10C8.1665 10 8.995 10 9.5805 9.414C9.5805 9.414 10.1665 8.8285 10.1665 8C10.1665 8 10.1665 7.1715 9.5805 6.586C9.5805 6.586 8.995 6 8.1665 6Z" fill="#FF6100"/>
<path fill-rule="evenodd" clip-rule="evenodd" d="M1.9165 5.25C1.9165 5.25 1.9165 3.8 2.9415 2.775C2.9415 2.775 3.9665 1.75 5.4165 1.75H10.9165C10.9165 1.75 12.3665 1.75 13.3915 2.775C13.3915 2.775 14.4165 3.8 14.4165 5.25V10.75C14.4165 10.75 14.4165 12.2 13.3915 13.225C13.3915 13.225 12.3665 14.25 10.9165 14.25H5.4165C5.4165 14.25 3.9665 14.25 2.9415 13.225C2.9415 13.225 1.9165 12.2 1.9165 10.75V5.25ZM2.9165 5.25V10.75C2.9165 10.75 2.9165 11.7855 3.6485 12.5175C3.6485 12.5175 4.381 13.25 5.4165 13.25H10.9165C10.9165 13.25 11.952 13.25 12.684 12.5175C12.684 12.5175 13.4165 11.7855 13.4165 10.75V5.25C13.4165 5.25 13.4165 4.2145 12.684 3.482C12.684 3.482 11.952 2.75 10.9165 2.75H5.4165C5.4165 2.75 4.381 2.75 3.6485 3.482C3.6485 3.482 2.9165 4.2145 2.9165 5.25Z" fill="#FF6100"/>
<path d="M12.1665 4.75C12.1665 4.94891 12.0875 5.13968 11.9468 5.28033C11.8062 5.42098 11.6154 5.5 11.4165 5.5C11.2176 5.5 11.0268 5.42098 10.8862 5.28033C10.7455 5.13968 10.6665 4.94891 10.6665 4.75C10.6665 4.55109 10.7455 4.36032 10.8862 4.21967C11.0268 4.07902 11.2176 4 11.4165 4C11.6154 4 11.8062 4.07902 11.9468 4.21967C12.0875 4.36032 12.1665 4.55109 12.1665 4.75Z" fill="#FF6100"/>
</svg>
