<svg width="16" height="17" viewBox="0 0 16 17" fill="none" xmlns="http://www.w3.org/2000/svg">
<path fill-rule="evenodd" clip-rule="evenodd" d="M8.00024 5.5C8.00024 5.5 9.24274 5.5 10.1217 6.3785C10.1217 6.3785 11.0002 7.2575 11.0002 8.5C11.0002 8.5 11.0002 9.7425 10.1217 10.6215C10.1217 10.6215 9.24274 11.5 8.00024 11.5C8.00024 11.5 6.75774 11.5 5.87874 10.6215C5.87874 10.6215 5.00024 9.7425 5.00024 8.5C5.00024 8.5 5.00024 7.2575 5.87874 6.3785C5.87874 6.3785 6.75774 5.5 8.00024 5.5ZM8.00024 6.5C8.00024 6.5 7.17174 6.5 6.58624 7.086C6.58624 7.086 6.00024 7.6715 6.00024 8.5C6.00024 8.5 6.00024 9.3285 6.58624 9.914C6.58624 9.914 7.17174 10.5 8.00024 10.5C8.00024 10.5 8.82874 10.5 9.41424 9.914C9.41424 9.914 10.0002 9.3285 10.0002 8.5C10.0002 8.5 10.0002 7.6715 9.41424 7.086C9.41424 7.086 8.82874 6.5 8.00024 6.5Z" fill="black"/>
<path fill-rule="evenodd" clip-rule="evenodd" d="M1.75024 5.75C1.75024 5.75 1.75024 4.3 2.77524 3.275C2.77524 3.275 3.80024 2.25 5.25024 2.25H10.7502C10.7502 2.25 12.2002 2.25 13.2252 3.275C13.2252 3.275 14.2502 4.3 14.2502 5.75V11.25C14.2502 11.25 14.2502 12.7 13.2252 13.725C13.2252 13.725 12.2002 14.75 10.7502 14.75H5.25024C5.25024 14.75 3.80024 14.75 2.77524 13.725C2.77524 13.725 1.75024 12.7 1.75024 11.25V5.75ZM2.75024 5.75V11.25C2.75024 11.25 2.75024 12.2855 3.48224 13.0175C3.48224 13.0175 4.21474 13.75 5.25024 13.75H10.7502C10.7502 13.75 11.7857 13.75 12.5177 13.0175C12.5177 13.0175 13.2502 12.2855 13.2502 11.25V5.75C13.2502 5.75 13.2502 4.7145 12.5177 3.982C12.5177 3.982 11.7857 3.25 10.7502 3.25H5.25024C5.25024 3.25 4.21474 3.25 3.48224 3.982C3.48224 3.982 2.75024 4.7145 2.75024 5.75Z" fill="black"/>
<path d="M12.0002 5.25C12.0002 5.44891 11.9212 5.63968 11.7806 5.78033C11.6399 5.92098 11.4492 6 11.2502 6C11.0513 6 10.8606 5.92098 10.7199 5.78033C10.5793 5.63968 10.5002 5.44891 10.5002 5.25C10.5002 5.05109 10.5793 4.86032 10.7199 4.71967C10.8606 4.57902 11.0513 4.5 11.2502 4.5C11.4492 4.5 11.6399 4.57902 11.7806 4.71967C11.9212 4.86032 12.0002 5.05109 12.0002 5.25Z" fill="black"/>
</svg>
