<svg width="16" height="17" viewBox="0 0 16 17" fill="none" xmlns="http://www.w3.org/2000/svg">
<path d="M0.5 5.5L8 9.5L15.5 5.5" stroke="#F5F5F5" stroke-linecap="round" stroke-linejoin="round"/>
<path d="M14 15H2C1.60218 15 1.22064 14.842 0.93934 14.5607C0.658035 14.2794 0.5 13.8978 0.5 13.5V3.5C0.5 3.10218 0.658035 2.72064 0.93934 2.43934C1.22064 2.15804 1.60218 2 2 2H14C14.3978 2 14.7794 2.15804 15.0607 2.43934C15.342 2.72064 15.5 3.10218 15.5 3.5V13.5C15.5 13.8978 15.342 14.2794 15.0607 14.5607C14.7794 14.842 14.3978 15 14 15Z" stroke="#F5F5F5" stroke-linecap="round" stroke-linejoin="round"/>
</svg>
