<svg width="14" height="15" viewBox="0 0 14 15" fill="none" xmlns="http://www.w3.org/2000/svg">
<path fill-rule="evenodd" clip-rule="evenodd" d="M1.53125 2.90625C1.53125 2.90625 1.53125 2.544 1.78762 2.28762C1.78762 2.28762 2.044 2.03125 2.40625 2.03125H11.5938C11.5938 2.03125 11.956 2.03125 12.2124 2.28762C12.2124 2.28762 12.4688 2.544 12.4688 2.90625V12.0938C12.4688 12.0938 12.4688 12.456 12.2124 12.7124C12.2124 12.7124 11.956 12.9688 11.5938 12.9688H2.40625C2.40625 12.9688 2.044 12.9688 1.78762 12.7124C1.78762 12.7124 1.53125 12.456 1.53125 12.0938V2.90625ZM2.40625 2.90625V12.0938H11.5938V2.90625H2.40625Z" fill="#FF6100"/>
<path d="M6.125 6.625V10.125C6.125 10.241 6.17109 10.3523 6.25314 10.4344C6.33519 10.5164 6.44647 10.5625 6.5625 10.5625C6.67853 10.5625 6.78981 10.5164 6.87186 10.4344C6.95391 10.3523 7 10.241 7 10.125V6.625C7 6.50897 6.95391 6.39769 6.87186 6.31564C6.78981 6.23359 6.67853 6.1875 6.5625 6.1875C6.44647 6.1875 6.33519 6.23359 6.25314 6.31564C6.17109 6.39769 6.125 6.50897 6.125 6.625Z" fill="#FF6100"/>
<path d="M4.375 6.625V10.125C4.375 10.241 4.42109 10.3523 4.50314 10.4344C4.58519 10.5164 4.69647 10.5625 4.8125 10.5625C4.92853 10.5625 5.03981 10.5164 5.12186 10.4344C5.20391 10.3523 5.25 10.241 5.25 10.125V6.625C5.25 6.50897 5.20391 6.39769 5.12186 6.31564C5.03981 6.23359 4.92853 6.1875 4.8125 6.1875C4.69647 6.1875 4.58519 6.23359 4.50314 6.31564C4.42109 6.39769 4.375 6.50897 4.375 6.625Z" fill="#FF6100"/>
<path d="M9.1875 8.15625V10.125C9.1875 10.241 9.23359 10.3523 9.31564 10.4344C9.39769 10.5164 9.50897 10.5625 9.625 10.5625C9.74103 10.5625 9.85231 10.5164 9.93436 10.4344C10.0164 10.3523 10.0625 10.241 10.0625 10.125V8.15625C10.0625 7.34075 9.48587 6.76412 9.48587 6.76412C8.90925 6.1875 8.09375 6.1875 8.09375 6.1875C7.27825 6.1875 6.70162 6.76412 6.70162 6.76412C6.125 7.34075 6.125 8.15625 6.125 8.15625C6.125 8.27228 6.17109 8.38356 6.25314 8.46561C6.33519 8.54766 6.44647 8.59375 6.5625 8.59375C6.67853 8.59375 6.78981 8.54766 6.87186 8.46561C6.95391 8.38356 7 8.27228 7 8.15625C7 7.70344 7.32025 7.38275 7.32025 7.38275C7.64094 7.0625 8.09375 7.0625 8.09375 7.0625C8.54656 7.0625 8.86725 7.38275 8.86725 7.38275C9.1875 7.70344 9.1875 8.15625 9.1875 8.15625Z" fill="#FF6100"/>
<path d="M5.46875 4.875C5.46875 4.96118 5.45178 5.04652 5.4188 5.12614C5.38582 5.20576 5.33748 5.2781 5.27654 5.33904C5.2156 5.39998 5.14326 5.44832 5.06364 5.4813C4.98402 5.51428 4.89868 5.53125 4.8125 5.53125C4.72632 5.53125 4.64098 5.51428 4.56136 5.4813C4.48174 5.44832 4.4094 5.39998 4.34846 5.33904C4.28752 5.2781 4.23918 5.20576 4.2062 5.12614C4.17322 5.04652 4.15625 4.96118 4.15625 4.875C4.15625 4.70095 4.22539 4.53403 4.34846 4.41096C4.47153 4.28789 4.63845 4.21875 4.8125 4.21875C4.98655 4.21875 5.15347 4.28789 5.27654 4.41096C5.39961 4.53403 5.46875 4.70095 5.46875 4.875Z" fill="#FF6100"/>
</svg>
