<svg width="15" height="14" viewBox="0 0 15 14" fill="none" xmlns="http://www.w3.org/2000/svg">
<path fill-rule="evenodd" clip-rule="evenodd" d="M1.69775 2.40625C1.69775 2.40625 1.69775 2.044 1.95413 1.78762C1.95413 1.78762 2.2105 1.53125 2.57275 1.53125H11.7603C11.7603 1.53125 12.1225 1.53125 12.3789 1.78762C12.3789 1.78762 12.6353 2.044 12.6353 2.40625V11.5938C12.6353 11.5938 12.6353 11.956 12.3789 12.2124C12.3789 12.2124 12.1225 12.4688 11.7603 12.4688H2.57275C2.57275 12.4688 2.2105 12.4688 1.95413 12.2124C1.95413 12.2124 1.69775 11.956 1.69775 11.5938V2.40625ZM2.57275 2.40625V11.5938H11.7603V2.40625H2.57275Z" fill="#FF6100"/>
<path d="M6.2915 6.125V9.625C6.2915 9.74103 6.3376 9.85231 6.41964 9.93436C6.50169 10.0164 6.61297 10.0625 6.729 10.0625C6.84504 10.0625 6.95632 10.0164 7.03836 9.93436C7.12041 9.85231 7.1665 9.74103 7.1665 9.625V6.125C7.1665 6.00897 7.12041 5.89769 7.03836 5.81564C6.95632 5.73359 6.84504 5.6875 6.729 5.6875C6.61297 5.6875 6.50169 5.73359 6.41964 5.81564C6.3376 5.89769 6.2915 6.00897 6.2915 6.125Z" fill="#FF6100"/>
<path d="M4.5415 6.125V9.625C4.5415 9.74103 4.5876 9.85231 4.66964 9.93436C4.75169 10.0164 4.86297 10.0625 4.979 10.0625C5.09504 10.0625 5.20632 10.0164 5.28836 9.93436C5.37041 9.85231 5.4165 9.74103 5.4165 9.625V6.125C5.4165 6.00897 5.37041 5.89769 5.28836 5.81564C5.20632 5.73359 5.09504 5.6875 4.979 5.6875C4.86297 5.6875 4.75169 5.73359 4.66964 5.81564C4.5876 5.89769 4.5415 6.00897 4.5415 6.125Z" fill="#FF6100"/>
<path d="M9.354 7.65625V9.625C9.354 9.74103 9.4001 9.85231 9.48214 9.93436C9.56419 10.0164 9.67547 10.0625 9.7915 10.0625C9.90754 10.0625 10.0188 10.0164 10.1009 9.93436C10.1829 9.85231 10.229 9.74103 10.229 9.625V7.65625C10.229 6.84075 9.65238 6.26412 9.65238 6.26412C9.07575 5.6875 8.26025 5.6875 8.26025 5.6875C7.44475 5.6875 6.86813 6.26412 6.86813 6.26412C6.2915 6.84075 6.2915 7.65625 6.2915 7.65625C6.2915 7.77228 6.3376 7.88356 6.41964 7.96561C6.50169 8.04766 6.61297 8.09375 6.729 8.09375C6.84504 8.09375 6.95632 8.04766 7.03836 7.96561C7.12041 7.88356 7.1665 7.77228 7.1665 7.65625C7.1665 7.20344 7.48675 6.88275 7.48675 6.88275C7.80744 6.5625 8.26025 6.5625 8.26025 6.5625C8.71307 6.5625 9.03375 6.88275 9.03375 6.88275C9.354 7.20344 9.354 7.65625 9.354 7.65625Z" fill="#FF6100"/>
<path d="M5.63525 4.375C5.63525 4.46118 5.61828 4.54652 5.5853 4.62614C5.55232 4.70576 5.50398 4.7781 5.44304 4.83904C5.3821 4.89998 5.30976 4.94832 5.23014 4.9813C5.15052 5.01428 5.06518 5.03125 4.979 5.03125C4.89282 5.03125 4.80749 5.01428 4.72787 4.9813C4.64825 4.94832 4.5759 4.89998 4.51496 4.83904C4.45403 4.7781 4.40569 4.70576 4.37271 4.62614C4.33973 4.54652 4.32275 4.46118 4.32275 4.375C4.32275 4.20095 4.39189 4.03403 4.51496 3.91096C4.63804 3.78789 4.80496 3.71875 4.979 3.71875C5.15305 3.71875 5.31997 3.78789 5.44304 3.91096C5.56611 4.03403 5.63525 4.20095 5.63525 4.375Z" fill="#FF6100"/>
</svg>
