<svg width="24" height="24" viewBox="0 0 24 24" fill="none" xmlns="http://www.w3.org/2000/svg">
<path d="M20 11.175C20 15.691 16.418 21 12 21C7.582 21 4 15.69 4 11.175C4 6.66 7.582 3 12 3C16.418 3 20 6.66 20 11.175Z" stroke="#F5F5F5" stroke-width="1.5"/>
<path d="M9.5 10.5C9.5 9.83696 9.76339 9.20107 10.2322 8.73223C10.7011 8.26339 11.337 8 12 8C12.663 8 13.2989 8.26339 13.7678 8.73223C14.2366 9.20107 14.5 9.83696 14.5 10.5C14.5 11.163 14.2366 11.7989 13.7678 12.2678C13.2989 12.7366 12.663 13 12 13C11.337 13 10.7011 12.7366 10.2322 12.2678C9.76339 11.7989 9.5 11.163 9.5 10.5Z" stroke="#F5F5F5" stroke-width="1.5"/>
</svg>
