<svg width="16" height="17" viewBox="0 0 16 17" fill="none" xmlns="http://www.w3.org/2000/svg">
<g clip-path="url(#clip0_518_1024)">
<path d="M9.1782 11.0289L8.1192 12.3539C6.47845 11.3891 5.11098 10.0217 4.1462 8.38091L5.4712 7.32191C5.62644 7.19763 5.73615 7.02543 5.78318 6.83221C5.83022 6.639 5.81194 6.43564 5.7312 6.25391L4.5242 3.53591C4.43768 3.34094 4.28471 3.18303 4.09258 3.09036C3.90046 2.99768 3.68166 2.97626 3.4752 3.02991L1.1752 3.62991C0.960135 3.68487 0.772967 3.81738 0.649665 4.00196C0.526363 4.18655 0.475625 4.41019 0.507202 4.62991C0.911131 7.50112 2.23885 10.1628 4.28964 12.2125C6.34042 14.2622 9.00278 15.5885 11.8742 15.9909C12.0939 16.0225 12.3176 15.9717 12.5021 15.8484C12.6867 15.7251 12.8192 15.538 12.8742 15.3229L13.4742 13.0229C13.5276 12.8166 13.506 12.598 13.4134 12.4061C13.3207 12.2142 13.163 12.0614 12.9682 11.9749L10.2462 10.7699C10.0646 10.6891 9.86129 10.6706 9.66808 10.7175C9.47487 10.7643 9.30262 10.8738 9.1782 11.0289Z" stroke="#F5F5F5" stroke-linecap="round" stroke-linejoin="round"/>
<path d="M8.5 4.5C9.42826 4.5 10.3185 4.86875 10.9749 5.52513C11.6313 6.1815 12 7.07174 12 8" stroke="#F5F5F5" stroke-linecap="round" stroke-linejoin="round"/>
<path d="M8.5 1.5C9.35359 1.5 10.1988 1.66813 10.9874 1.99478C11.7761 2.32144 12.4926 2.80023 13.0962 3.40381C13.6998 4.00739 14.1786 4.72394 14.5052 5.51256C14.8319 6.30117 15 7.14641 15 8" stroke="#F5F5F5" stroke-linecap="round" stroke-linejoin="round"/>
</g>
<defs>
<clipPath id="clip0_518_1024">
<rect width="16" height="16" fill="white" transform="translate(0 0.5)"/>
</clipPath>
</defs>
</svg>
