<svg width="24" height="25" viewBox="0 0 24 25" fill="none" xmlns="http://www.w3.org/2000/svg">
<g clip-path="url(#clip0_468_1396)">
<path d="M3.4606 10.0001C3.78509 8.61656 4.48941 7.35113 5.49424 6.34629C6.49908 5.34146 7.76451 4.63714 9.14801 4.31265C11.1861 3.83459 13.3072 3.83459 15.3453 4.31265C16.7288 4.63714 17.9943 5.34146 18.9991 6.34629C20.0039 7.35113 20.7083 8.61656 21.0328 10.0001C21.5109 12.0382 21.5109 14.1593 21.0328 16.1974C20.7083 17.5809 20.0039 18.8463 18.9991 19.8512C17.9943 20.856 16.7288 21.5603 15.3453 21.8848C13.3072 22.3629 11.1861 22.3629 9.14801 21.8848C7.76451 21.5603 6.49908 20.856 5.49424 19.8512C4.48941 18.8463 3.78509 17.5809 3.4606 16.1974C2.98253 14.1593 2.98253 12.0382 3.4606 10.0001Z" fill="#FF6100" fill-opacity="0.19"/>
<path d="M22.6914 25.3952C22.7693 25.4789 22.8634 25.546 22.9679 25.5925C23.0723 25.6391 23.1851 25.6641 23.2995 25.6661C23.4139 25.6681 23.5274 25.6471 23.6335 25.6043C23.7396 25.5614 23.8359 25.4977 23.9168 25.4168C23.9977 25.3359 24.0614 25.2396 24.1043 25.1335C24.1471 25.0274 24.1681 24.9139 24.1661 24.7995C24.1641 24.6851 24.1391 24.5723 24.0925 24.4679C24.046 24.3634 23.9789 24.2693 23.8952 24.1914L22.6914 25.3952ZM4.03919 16.4007C3.59103 14.4903 3.59103 12.5021 4.03919 10.5918L2.38112 10.2034C1.87296 12.3696 1.87296 14.624 2.38112 16.7902L4.03919 16.4007ZM19.9533 10.5918C20.4015 12.5021 20.4015 14.4903 19.9533 16.4007L21.6113 16.7891C22.1195 14.6229 22.1195 12.3696 21.6113 10.2034L19.9533 10.5918ZM14.9007 21.4533C12.9907 21.9013 11.0018 21.9013 9.09176 21.4533L8.70337 23.1113C10.8691 23.6201 13.1234 23.6201 15.2902 23.1113L14.9007 21.4533ZM9.0929 5.53919C11.0033 5.09103 12.9915 5.09103 14.9018 5.53919L15.2902 3.88112C13.124 3.37296 10.8696 3.37296 8.70337 3.88112L9.0929 5.53919ZM9.0929 21.4533C7.86348 21.1651 6.73896 20.5393 5.84606 19.6464C4.95316 18.7535 4.32737 17.6301 4.03919 16.4007L2.38112 16.7891C2.74171 18.3274 3.52474 19.7344 4.64196 20.8516C5.75918 21.9689 7.16621 22.7519 8.7045 23.1125L9.0929 21.4533ZM15.2902 23.1113C16.8284 22.7508 18.2353 21.968 19.3525 20.851C20.4697 19.734 21.2528 18.3272 21.6136 16.7891L19.9555 16.4007C19.6674 17.6301 19.0416 18.7546 18.1487 19.6475C17.2558 20.5404 16.1313 21.1662 14.9018 21.4544L15.2902 23.1125V23.1113ZM14.9007 5.53919C16.1301 5.82737 17.2546 6.45316 18.1475 7.34606C19.0404 8.23896 19.6662 9.36348 19.9544 10.5929L21.6125 10.2034C21.2517 8.66528 20.4686 7.2585 19.3514 6.14149C18.2342 5.02448 16.8272 4.24162 15.2891 3.88112L14.9007 5.53919ZM8.70337 3.88112C7.16543 4.24181 5.75874 5.02475 4.64174 6.14174C3.52475 7.25874 2.74181 8.66543 2.38112 10.2034L4.03919 10.5918C4.32737 9.36234 4.95316 8.23783 5.84606 7.34493C6.73896 6.45203 7.86348 5.82737 9.0929 5.53919L8.70337 3.88112ZM18.5291 21.2341L22.6914 25.3952L23.8952 24.1914L19.733 20.0291L18.5291 21.2341Z" fill="#FF6100"/>
</g>
<defs>
<clipPath id="clip0_468_1396">
<rect width="24" height="24" fill="white" transform="translate(0 0.5)"/>
</clipPath>
</defs>
</svg>
