<svg width="24" height="25" viewBox="0 0 24 25" fill="none" xmlns="http://www.w3.org/2000/svg">
<g clip-path="url(#clip0_487_3251)">
<path d="M3.4606 10.0001C3.78509 8.61656 4.48941 7.35113 5.49424 6.34629C6.49908 5.34146 7.76451 4.63714 9.14801 4.31265C11.1861 3.83459 13.3072 3.83459 15.3453 4.31265C16.7288 4.63714 17.9943 5.34146 18.9991 6.34629C20.0039 7.35113 20.7083 8.61656 21.0328 10.0001C21.5109 12.0382 21.5109 14.1593 21.0328 16.1974C20.7083 17.5809 20.0039 18.8463 18.9991 19.8512C17.9943 20.856 16.7288 21.5603 15.3453 21.8848C13.3072 22.3629 11.1861 22.3629 9.14801 21.8848C7.76451 21.5603 6.49908 20.856 5.49424 19.8512C4.48941 18.8463 3.78509 17.5809 3.4606 16.1974C2.98253 14.1593 2.98253 12.0382 3.4606 10.0001Z" fill="#FF6100" fill-opacity="0.19"/>
<path d="M22.6914 25.8952C22.7693 25.9789 22.8634 26.046 22.9679 26.0925C23.0723 26.1391 23.1851 26.1641 23.2995 26.1661C23.4139 26.1681 23.5274 26.1471 23.6335 26.1043C23.7396 26.0614 23.8359 25.9977 23.9168 25.9168C23.9977 25.8359 24.0614 25.7396 24.1043 25.6335C24.1471 25.5274 24.1681 25.4139 24.1661 25.2995C24.1641 25.1851 24.1391 25.0723 24.0925 24.9679C24.046 24.8634 23.9789 24.7693 23.8952 24.6914L22.6914 25.8952ZM4.03919 16.9007C3.59103 14.9903 3.59103 13.0021 4.03919 11.0918L2.38112 10.7034C1.87296 12.8696 1.87296 15.124 2.38112 17.2902L4.03919 16.9007ZM19.9533 11.0918C20.4015 13.0021 20.4015 14.9903 19.9533 16.9007L21.6113 17.2891C22.1195 15.1229 22.1195 12.8696 21.6113 10.7034L19.9533 11.0918ZM14.9007 21.9533C12.9907 22.4013 11.0018 22.4013 9.09176 21.9533L8.70337 23.6113C10.8691 24.1201 13.1234 24.1201 15.2902 23.6113L14.9007 21.9533ZM9.0929 6.03919C11.0033 5.59103 12.9915 5.59103 14.9018 6.03919L15.2902 4.38112C13.124 3.87296 10.8696 3.87296 8.70337 4.38112L9.0929 6.03919ZM9.0929 21.9533C7.86348 21.6651 6.73896 21.0393 5.84606 20.1464C4.95316 19.2535 4.32737 18.1301 4.03919 16.9007L2.38112 17.2891C2.74171 18.8274 3.52474 20.2344 4.64196 21.3516C5.75918 22.4689 7.16621 23.2519 8.7045 23.6125L9.0929 21.9533ZM15.2902 23.6113C16.8284 23.2508 18.2353 22.468 19.3525 21.351C20.4697 20.234 21.2528 18.8272 21.6136 17.2891L19.9555 16.9007C19.6674 18.1301 19.0416 19.2546 18.1487 20.1475C17.2558 21.0404 16.1313 21.6662 14.9018 21.9544L15.2902 23.6125V23.6113ZM14.9007 6.03919C16.1301 6.32737 17.2546 6.95316 18.1475 7.84606C19.0404 8.73896 19.6662 9.86348 19.9544 11.0929L21.6125 10.7034C21.2517 9.16528 20.4686 7.7585 19.3514 6.64149C18.2342 5.52448 16.8272 4.74162 15.2891 4.38112L14.9007 6.03919ZM8.70337 4.38112C7.16543 4.74181 5.75874 5.52475 4.64174 6.64174C3.52475 7.75874 2.74181 9.16543 2.38112 10.7034L4.03919 11.0918C4.32737 9.86234 4.95316 8.73783 5.84606 7.84493C6.73896 6.95203 7.86348 6.32737 9.0929 6.03919L8.70337 4.38112ZM18.5291 21.7341L22.6914 25.8952L23.8952 24.6914L19.733 20.5291L18.5291 21.7341Z" fill="#FF6100"/>
</g>
<defs>
<clipPath id="clip0_487_3251">
<rect width="24" height="24" fill="white" transform="translate(0 0.5)"/>
</clipPath>
</defs>
</svg>
