<svg width="15" height="14" viewBox="0 0 15 14" fill="none" xmlns="http://www.w3.org/2000/svg">
<path fill-rule="evenodd" clip-rule="evenodd" d="M1.97618 7.22105C1.97618 7.22105 1.67343 7.15893 1.48006 6.92793C1.48006 6.92793 1.30418 6.71793 1.27881 6.44055C1.27881 6.44055 1.253 6.1623 1.38906 5.9243C1.38906 5.9243 1.53868 5.6618 1.82787 5.54805L11.9249 1.58299C11.9249 1.58299 12.1507 1.49549 12.3891 1.53618C12.3891 1.53618 12.628 1.5773 12.8117 1.73524C12.8117 1.73524 12.9955 1.89274 13.0716 2.12287C13.0716 2.12287 13.1477 2.35255 13.0948 2.59143L11.0386 11.5716C11.0386 11.5716 10.9865 11.7973 10.8299 11.9675C10.8299 11.9675 10.6732 12.1381 10.4527 12.209C10.4527 12.209 10.2322 12.2794 10.0056 12.2322C10.0056 12.2322 9.779 12.1841 9.60662 12.0318L4.77793 7.78324L1.97793 7.22105H1.97618ZM2.15031 6.36355L5.06537 6.94849C5.14062 6.9638 5.21062 6.99837 5.26793 7.04912L10.1846 11.3747L10.1854 11.3756L12.2417 2.39849L2.14768 6.36268L2.15031 6.36355Z" fill="#FF6100"/>
<path d="M12.6777 2.3566C12.7708 2.28835 12.8332 2.18605 12.8513 2.07199C12.8693 1.95794 12.8415 1.84137 12.7739 1.74772C12.7064 1.65407 12.6046 1.59092 12.4906 1.57205C12.3767 1.55317 12.2599 1.58011 12.1658 1.64697L4.72305 7.02253C4.64723 7.07799 4.59122 7.15633 4.56329 7.24601C4.53535 7.3357 4.53697 7.43198 4.56789 7.52068C4.59881 7.60938 4.65741 7.6858 4.73504 7.73868C4.81268 7.79157 4.90525 7.81811 4.99911 7.81441C5.08419 7.81057 5.16629 7.78198 5.23536 7.73216L12.6777 2.3566Z" fill="#FF6100"/>
<path d="M5.4165 10.9367V7.3772C5.4165 7.26116 5.37041 7.14989 5.28836 7.06784C5.20632 6.98579 5.09504 6.9397 4.979 6.9397C4.86297 6.9397 4.75169 6.98579 4.66964 7.06784C4.5876 7.14989 4.5415 7.26116 4.5415 7.3772V10.9376C4.5415 11.2044 4.69025 11.4254 4.69025 11.4254C4.839 11.6463 5.08532 11.7469 5.08532 11.7469C5.33163 11.8476 5.59238 11.7938 5.59238 11.7938C5.85313 11.7404 6.03994 11.5509 6.03994 11.5509L7.74357 9.84688C7.82326 9.76437 7.86736 9.65386 7.86636 9.53915C7.86536 9.42444 7.81935 9.3147 7.73824 9.23359C7.65712 9.15247 7.54739 9.10646 7.43268 9.10546C7.31797 9.10447 7.20745 9.14857 7.12494 9.22826L5.4165 10.9367Z" fill="#FF6100"/>
</svg>
