<svg width="14" height="15" viewBox="0 0 14 15" fill="none" xmlns="http://www.w3.org/2000/svg">
<path fill-rule="evenodd" clip-rule="evenodd" d="M1.8095 7.72105C1.8095 7.72105 1.50675 7.65893 1.31337 7.42793C1.31337 7.42793 1.1375 7.21793 1.11212 6.94055C1.11212 6.94055 1.08631 6.6623 1.22237 6.4243C1.22237 6.4243 1.372 6.1618 1.66118 6.04805L11.7582 2.08299C11.7582 2.08299 11.984 1.99549 12.2224 2.03618C12.2224 2.03618 12.4613 2.0773 12.6451 2.23524C12.6451 2.23524 12.8288 2.39274 12.9049 2.62287C12.9049 2.62287 12.9811 2.85255 12.9281 3.09143L10.8719 12.0716C10.8719 12.0716 10.8198 12.2973 10.6632 12.4675C10.6632 12.4675 10.5066 12.6381 10.2861 12.709C10.2861 12.709 10.0656 12.7794 9.83893 12.7322C9.83893 12.7322 9.61231 12.6841 9.43993 12.5318L4.61125 8.28324L1.81125 7.72105H1.8095ZM1.98362 6.86355L4.89868 7.44849C4.97393 7.4638 5.04393 7.49837 5.10125 7.54912L10.0179 11.8747L10.0187 11.8756L12.075 2.89849L1.981 6.86268L1.98362 6.86355Z" fill="#FF6100"/>
<path d="M12.5112 2.85635C12.6043 2.78811 12.6667 2.68581 12.6848 2.57175C12.7028 2.45769 12.675 2.34113 12.6074 2.24748C12.5399 2.15382 12.4381 2.09068 12.3241 2.0718C12.2102 2.05293 12.0934 2.07986 11.9993 2.14673L4.55654 7.52229C4.48072 7.57774 4.42472 7.65608 4.39679 7.74577C4.36885 7.83545 4.37046 7.93174 4.40139 8.02044C4.43231 8.10914 4.4909 8.18556 4.56854 8.23844C4.64618 8.29132 4.73874 8.31787 4.83261 8.31416C4.91768 8.31033 4.99979 8.28174 5.06886 8.23191L12.5112 2.85635Z" fill="#FF6100"/>
<path d="M5.25 11.4369V7.87744C5.25 7.76141 5.20391 7.65013 5.12186 7.56808C5.03981 7.48604 4.92853 7.43994 4.8125 7.43994C4.69647 7.43994 4.58519 7.48604 4.50314 7.56808C4.42109 7.65013 4.375 7.76141 4.375 7.87744V11.4378C4.375 11.7047 4.52375 11.9256 4.52375 11.9256C4.6725 12.1466 4.91881 12.2472 4.91881 12.2472C5.16513 12.3478 5.42588 12.294 5.42588 12.294C5.68663 12.2406 5.87344 12.0512 5.87344 12.0512L7.57706 10.3471C7.65676 10.2646 7.70085 10.1541 7.69986 10.0394C7.69886 9.92468 7.65285 9.81495 7.57173 9.73383C7.49062 9.65272 7.38089 9.60671 7.26618 9.60571C7.15146 9.60471 7.04095 9.64881 6.95844 9.7285L5.25 11.4369Z" fill="#FF6100"/>
</svg>
