<svg width="15" height="14" viewBox="0 0 15 14" fill="none" xmlns="http://www.w3.org/2000/svg">
<path fill-rule="evenodd" clip-rule="evenodd" d="M9.79144 6.58175V8.53125C9.79144 8.53125 9.79187 9.74181 9.14219 10.7634C9.14219 10.7634 8.4925 11.7849 7.39569 12.2981C7.39569 12.2981 6.29887 12.8109 5.09837 12.6543C5.09837 12.6543 3.89744 12.4981 2.96906 11.7215C2.96906 11.7215 2.04025 10.9445 1.67406 9.79081C1.67406 9.79081 1.30744 8.63669 1.61806 7.46637C1.61806 7.46637 1.92869 6.29606 2.81944 5.47575C2.81944 5.47575 3.70975 4.65587 4.90194 4.44194C4.96493 4.43061 5.02964 4.43324 5.0915 4.44964C5.15337 4.46605 5.21088 4.49583 5.25999 4.53688C5.30909 4.57793 5.34859 4.62926 5.3757 4.68723C5.4028 4.74521 5.41686 4.80843 5.41687 4.87244V7.14744C5.41685 7.23034 5.39328 7.31153 5.3489 7.38155C5.30451 7.45157 5.24115 7.50754 5.16619 7.54294C5.16619 7.54294 4.89625 7.67112 4.72869 7.91919C4.72869 7.91919 4.56156 8.16638 4.54319 8.46519C4.54319 8.46519 4.52569 8.76356 4.66131 9.02956C4.66131 9.02956 4.79781 9.29556 5.05069 9.45569C5.05069 9.45569 5.30312 9.61538 5.60194 9.62456C5.60194 9.62456 5.90075 9.63331 6.16281 9.48894C6.16281 9.48894 6.42444 9.345 6.57669 9.08775C6.57669 9.08775 6.72894 8.83006 6.72894 8.53125V1.53125C6.72894 1.41522 6.77503 1.30394 6.85708 1.22189C6.93912 1.13984 7.0504 1.09375 7.16644 1.09375H9.35394C9.46997 1.09375 9.58125 1.13984 9.66329 1.22189C9.74534 1.30394 9.79144 1.41522 9.79144 1.53125C9.79144 1.53125 9.79144 2.61844 10.5601 3.38756C10.5601 3.38756 11.3292 4.15625 12.4164 4.15625C12.5325 4.15625 12.6437 4.20234 12.7258 4.28439C12.8078 4.36644 12.8539 4.47772 12.8539 4.59375V6.78125C12.8539 6.89728 12.8078 7.00856 12.7258 7.09061C12.6437 7.17266 12.5325 7.21875 12.4164 7.21875C12.4164 7.21875 11.0011 7.21962 9.79144 6.58175ZM8.91644 8.53125V5.79688C8.91647 5.71643 8.93869 5.63755 8.98065 5.56891C9.02261 5.50027 9.08268 5.44452 9.15426 5.40781C9.22584 5.37109 9.30616 5.35482 9.38638 5.36079C9.46661 5.36675 9.54364 5.39472 9.609 5.44162C9.609 5.44162 10.687 6.216 11.9789 6.32538V5.00412C11.9789 5.00412 11.5152 4.94637 11.0768 4.76481C11.0768 4.76481 10.4337 4.49837 9.9415 4.00619C9.9415 4.00619 9.44931 3.514 9.18287 2.87044C9.18287 2.87044 9.00087 2.43206 8.94312 1.96875H7.60394V8.53125C7.60394 8.53125 7.60394 9.06938 7.33006 9.53312C7.33006 9.53312 7.05619 9.996 6.585 10.2559C6.585 10.2559 6.11337 10.5153 5.57569 10.4991C5.57569 10.4991 5.03756 10.4825 4.58256 10.1951C4.58256 10.1951 4.12756 9.90719 3.88256 9.42812C3.88256 9.42812 3.63756 8.94906 3.66994 8.41225C3.66994 8.41225 3.70231 7.875 4.00375 7.42875C4.00375 7.42875 4.22337 7.10369 4.54144 6.89325V5.43769C4.54144 5.43769 3.91581 5.65556 3.41225 6.11975C3.41225 6.11975 2.70919 6.76725 2.46375 7.69081C2.46375 7.69081 2.21875 8.61481 2.5075 9.52569C2.5075 9.52569 2.79712 10.437 3.53037 11.0504C3.53037 11.0504 4.26362 11.6633 5.21125 11.7867C5.21125 11.7867 6.15931 11.9105 7.02512 11.5054C7.02512 11.5054 7.89094 11.1007 8.40369 10.2935C8.40369 10.2935 8.91687 9.48675 8.91644 8.53125Z" fill="#FF6100"/>
</svg>
