<svg width="16" height="17" viewBox="0 0 16 17" fill="none" xmlns="http://www.w3.org/2000/svg">
<path fill-rule="evenodd" clip-rule="evenodd" d="M4.40886 4.9C4.40886 4.9 6.00436 5.9975 7.50036 6.383V6C7.50036 6 7.50037 4.76 8.39887 3.8715C8.39887 3.8715 9.29837 2.983 10.5389 3C10.5389 3 11.4229 3.01 12.1604 3.4995C12.1604 3.4995 12.7564 3.8945 13.1024 4.4995H15.0004C15.0993 4.49942 15.1961 4.52872 15.2784 4.58369C15.3607 4.63865 15.4249 4.71681 15.4627 4.80826C15.5006 4.89972 15.5105 5.00035 15.4911 5.09741C15.4717 5.19447 15.4239 5.2836 15.3539 5.3535L13.4664 7.241C13.4664 7.241 13.3364 8.7535 12.6859 10.131C12.6859 10.131 11.9944 11.596 10.8134 12.703C10.8134 12.703 9.63187 13.8105 8.12586 14.4055C8.12586 14.4055 6.61936 15.0005 5.00036 15C5.00036 15 3.63236 15 2.77686 14.572C2.77686 14.572 2.28336 14.3255 2.08436 14.027C2.04268 13.9643 2.01569 13.8931 2.00538 13.8185C1.99508 13.744 2.00173 13.6681 2.02485 13.5965C2.04797 13.5249 2.08695 13.4594 2.1389 13.4049C2.19085 13.3505 2.25442 13.3085 2.32486 13.282C2.32486 13.282 2.78236 13.1105 3.36836 12.7585C3.36836 12.7585 4.23536 12.2385 4.76836 11.6325C4.76836 11.6325 4.68136 11.57 4.58836 11.4995C4.58836 11.4995 3.81236 10.9095 3.22336 10.1095C3.22336 10.1095 1.34486 7.5605 2.00836 3.9105C2.0247 3.82073 2.06529 3.73715 2.12573 3.6688C2.18617 3.60045 2.26417 3.54994 2.35126 3.52275C2.43835 3.49555 2.53123 3.49271 2.61982 3.51452C2.70842 3.53634 2.78935 3.58198 2.85386 3.6465C2.85386 3.6465 3.44636 4.239 4.40886 4.9ZM8.50037 7C8.50033 7.07258 8.4845 7.14428 8.45396 7.21012C8.42343 7.27597 8.37892 7.33437 8.32354 7.38129C8.26816 7.4282 8.20323 7.46249 8.13326 7.48178C8.06329 7.50107 7.98996 7.5049 7.91837 7.493C7.91837 7.493 5.93336 7.1625 3.84236 5.7245C3.84236 5.7245 3.30436 5.3545 2.86886 5.0005C2.86886 5.0005 2.64036 7.6325 4.02786 9.5155C4.02786 9.5155 4.53236 10.2005 5.19386 10.7035C5.19386 10.7035 5.51586 10.9485 5.72386 11.0525C5.78735 11.0842 5.84336 11.129 5.88817 11.184C5.93299 11.239 5.96558 11.303 5.98379 11.3715C6.002 11.4401 6.00541 11.5118 5.99378 11.5818C5.98215 11.6518 5.95576 11.7185 5.91636 11.7775C5.91636 11.7775 5.22936 12.8085 3.88286 13.616C3.88286 13.616 3.71086 13.7195 3.54736 13.8095C3.54736 13.8095 4.12986 13.9995 5.00086 13.9995C5.00086 13.9995 6.42936 14.0005 7.75836 13.4755C7.75836 13.4755 9.08686 12.9505 10.1294 11.9735C10.1294 11.9735 11.1719 10.9965 11.7814 9.7045C11.7814 9.7045 12.3914 8.4125 12.4829 6.9865C12.4905 6.86527 12.5421 6.75099 12.6279 6.665L13.7939 5.5H12.7949C12.6975 5.50004 12.6023 5.47168 12.5209 5.41839C12.4394 5.3651 12.3753 5.2892 12.3364 5.2C12.3364 5.2 12.1004 4.659 11.6084 4.333C11.6084 4.333 11.1169 4.0065 10.5254 4C10.5254 4 9.70387 3.9885 9.10237 4.583C9.10237 4.583 8.50086 5.177 8.50086 6L8.50037 7Z" fill="black"/>
</svg>
