<svg width="16" height="17" viewBox="0 0 16 17" fill="none" xmlns="http://www.w3.org/2000/svg">
<path fill-rule="evenodd" clip-rule="evenodd" d="M4.4085 4.90024C4.4085 4.90024 6.004 5.99774 7.5 6.38324V6.00024C7.5 6.00024 7.5 4.76024 8.3985 3.87174C8.3985 3.87174 9.298 2.98324 10.5385 3.00024C10.5385 3.00024 11.4225 3.01024 12.16 3.49974C12.16 3.49974 12.756 3.89474 13.102 4.49974H15C15.099 4.49966 15.1958 4.52896 15.2781 4.58393C15.3604 4.6389 15.4245 4.71706 15.4624 4.80851C15.5002 4.89996 15.5101 5.00059 15.4907 5.09765C15.4713 5.19472 15.4236 5.28384 15.3535 5.35374L13.466 7.24124C13.466 7.24124 13.336 8.75374 12.6855 10.1312C12.6855 10.1312 11.994 11.5962 10.813 12.7032C10.813 12.7032 9.6315 13.8107 8.1255 14.4057C8.1255 14.4057 6.619 15.0007 5 15.0002C5 15.0002 3.632 15.0002 2.7765 14.5722C2.7765 14.5722 2.283 14.3257 2.084 14.0272C2.04232 13.9646 2.01532 13.8933 2.00501 13.8188C1.99471 13.7442 2.00137 13.6683 2.02448 13.5967C2.0476 13.5251 2.08659 13.4596 2.13854 13.4052C2.19048 13.3507 2.25405 13.3087 2.3245 13.2822C2.3245 13.2822 2.782 13.1107 3.368 12.7587C3.368 12.7587 4.235 12.2387 4.768 11.6327C4.768 11.6327 4.681 11.5702 4.588 11.4997C4.588 11.4997 3.812 10.9097 3.223 10.1097C3.223 10.1097 1.3445 7.56074 2.008 3.91074C2.02433 3.82098 2.06492 3.73739 2.12537 3.66904C2.18581 3.60069 2.2638 3.55019 2.35089 3.52299C2.43799 3.4958 2.53086 3.49295 2.61946 3.51477C2.70805 3.53658 2.78899 3.58222 2.8535 3.64674C2.8535 3.64674 3.446 4.23924 4.4085 4.90024ZM8.5 7.00024C8.49997 7.07282 8.48413 7.14452 8.4536 7.21037C8.42306 7.27621 8.37856 7.33462 8.32318 7.38153C8.26779 7.42844 8.20286 7.46273 8.1329 7.48203C8.06293 7.50132 7.9896 7.50514 7.918 7.49324C7.918 7.49324 5.933 7.16274 3.842 5.72474C3.842 5.72474 3.304 5.35474 2.8685 5.00074C2.8685 5.00074 2.64 7.63274 4.0275 9.51574C4.0275 9.51574 4.532 10.2007 5.1935 10.7037C5.1935 10.7037 5.5155 10.9487 5.7235 11.0527C5.78698 11.0844 5.84299 11.1293 5.88781 11.1843C5.93262 11.2393 5.96522 11.3032 5.98343 11.3718C6.00164 11.4404 6.00504 11.512 5.99341 11.582C5.98179 11.652 5.9554 11.7187 5.916 11.7777C5.916 11.7777 5.229 12.8087 3.8825 13.6162C3.8825 13.6162 3.7105 13.7197 3.547 13.8097C3.547 13.8097 4.1295 13.9997 5.0005 13.9997C5.0005 13.9997 6.429 14.0007 7.758 13.4757C7.758 13.4757 9.0865 12.9507 10.129 11.9737C10.129 11.9737 11.1715 10.9967 11.781 9.70474C11.781 9.70474 12.391 8.41274 12.4825 6.98674C12.4902 6.86552 12.5417 6.75124 12.6275 6.66524L13.7935 5.50024H12.7945C12.6972 5.50029 12.6019 5.47193 12.5205 5.41864C12.4391 5.36535 12.3749 5.28944 12.336 5.20024C12.336 5.20024 12.1 4.65924 11.608 4.33324C11.608 4.33324 11.1165 4.00674 10.525 4.00024C10.525 4.00024 9.7035 3.98874 9.102 4.58324C9.102 4.58324 8.5005 5.17724 8.5005 6.00024L8.5 7.00024Z" fill="#FF6100"/>
</svg>
