<svg width="17" height="16" viewBox="0 0 17 16" fill="none" xmlns="http://www.w3.org/2000/svg">
<path fill-rule="evenodd" clip-rule="evenodd" d="M4.57512 4.4C4.57512 4.4 6.17062 5.4975 7.66662 5.883V5.5C7.66662 5.5 7.66663 4.26 8.56513 3.3715C8.56513 3.3715 9.46462 2.483 10.7051 2.5C10.7051 2.5 11.5891 2.51 12.3266 2.9995C12.3266 2.9995 12.9226 3.3945 13.2686 3.9995H15.1666C15.2656 3.99942 15.3624 4.02872 15.4447 4.08369C15.527 4.13865 15.5911 4.21681 15.629 4.30826C15.6669 4.39972 15.6767 4.50035 15.6573 4.59741C15.638 4.69447 15.5902 4.7836 15.5201 4.8535L13.6326 6.741C13.6326 6.741 13.5026 8.2535 12.8521 9.631C12.8521 9.631 12.1606 11.096 10.9796 12.203C10.9796 12.203 9.79812 13.3105 8.29212 13.9055C8.29212 13.9055 6.78562 14.5005 5.16662 14.5C5.16662 14.5 3.79862 14.5 2.94312 14.072C2.94312 14.072 2.44962 13.8255 2.25062 13.527C2.20894 13.4643 2.18195 13.3931 2.17164 13.3185C2.16134 13.244 2.16799 13.1681 2.19111 13.0965C2.21423 13.0249 2.25321 12.9594 2.30516 12.9049C2.35711 12.8505 2.42068 12.8085 2.49112 12.782C2.49112 12.782 2.94862 12.6105 3.53462 12.2585C3.53462 12.2585 4.40162 11.7385 4.93462 11.1325C4.93462 11.1325 4.84762 11.07 4.75462 10.9995C4.75462 10.9995 3.97862 10.4095 3.38962 9.6095C3.38962 9.6095 1.51112 7.0605 2.17462 3.4105C2.19096 3.32073 2.23155 3.23715 2.29199 3.1688C2.35243 3.10045 2.43043 3.04994 2.51752 3.02275C2.60461 2.99555 2.69749 2.99271 2.78608 3.01452C2.87468 3.03634 2.95561 3.08198 3.02012 3.1465C3.02012 3.1465 3.61262 3.739 4.57512 4.4ZM8.66663 6.5C8.66659 6.57258 8.65076 6.64428 8.62022 6.71012C8.58969 6.77597 8.54518 6.83437 8.4898 6.88129C8.43442 6.9282 8.36949 6.96249 8.29952 6.98178C8.22955 7.00107 8.15622 7.0049 8.08463 6.993C8.08463 6.993 6.09962 6.6625 4.00862 5.2245C4.00862 5.2245 3.47062 4.8545 3.03512 4.5005C3.03512 4.5005 2.80662 7.1325 4.19412 9.0155C4.19412 9.0155 4.69862 9.7005 5.36012 10.2035C5.36012 10.2035 5.68212 10.4485 5.89012 10.5525C5.95361 10.5842 6.00962 10.629 6.05443 10.684C6.09925 10.739 6.13184 10.803 6.15005 10.8715C6.16826 10.9401 6.17167 11.0118 6.16004 11.0818C6.14841 11.1518 6.12202 11.2185 6.08262 11.2775C6.08262 11.2775 5.39562 12.3085 4.04912 13.116C4.04912 13.116 3.87712 13.2195 3.71362 13.3095C3.71362 13.3095 4.29612 13.4995 5.16712 13.4995C5.16712 13.4995 6.59562 13.5005 7.92462 12.9755C7.92462 12.9755 9.25312 12.4505 10.2956 11.4735C10.2956 11.4735 11.3381 10.4965 11.9476 9.2045C11.9476 9.2045 12.5576 7.9125 12.6491 6.4865C12.6568 6.36527 12.7083 6.25099 12.7941 6.165L13.9601 5H12.9611C12.8638 5.00004 12.7686 4.97168 12.6871 4.91839C12.6057 4.8651 12.5416 4.7892 12.5026 4.7C12.5026 4.7 12.2666 4.159 11.7746 3.833C11.7746 3.833 11.2831 3.5065 10.6916 3.5C10.6916 3.5 9.87013 3.4885 9.26863 4.083C9.26863 4.083 8.66712 4.677 8.66712 5.5L8.66663 6.5Z" fill="#FF6100"/>
</svg>
