<svg width="17" height="16" viewBox="0 0 17 16" fill="none" xmlns="http://www.w3.org/2000/svg">
<path fill-rule="evenodd" clip-rule="evenodd" d="M7.444 10.4161C7.3687 10.4663 7.28118 10.4952 7.19076 10.4996C7.10035 10.504 7.01044 10.4837 6.93062 10.441C6.85081 10.3983 6.78408 10.3347 6.73757 10.2571C6.69105 10.1794 6.66649 10.0906 6.6665 10.0001V6.00007C6.66649 5.90955 6.69105 5.82073 6.73757 5.74307C6.78408 5.66541 6.85081 5.60184 6.93062 5.55914C7.01044 5.51643 7.10035 5.4962 7.19076 5.50059C7.28118 5.50498 7.3687 5.53384 7.444 5.58408L10.444 7.58407C10.5125 7.62974 10.5686 7.6916 10.6075 7.76417C10.6463 7.83674 10.6666 7.91777 10.6666 8.00007C10.6666 8.08238 10.6463 8.16341 10.6075 8.23598C10.5686 8.30855 10.5125 8.37041 10.444 8.41608L7.444 10.4161ZM9.265 8.00007L7.6665 9.06607V6.93458L9.265 8.00007Z" fill="#FF6100"/>
<path fill-rule="evenodd" clip-rule="evenodd" d="M1.52 4.36209C1.52 4.36209 1.61 4.01459 1.8475 3.74509C1.8475 3.74509 2.085 3.47559 2.4255 3.33909C2.4255 3.33909 3.8005 2.81409 6.1285 2.61759C6.1285 2.61759 7.2795 2.52009 8.1635 2.52509C8.1635 2.52509 9.0535 2.52009 10.2045 2.61759C10.2045 2.61759 12.533 2.81409 13.9145 3.34259C13.9145 3.34259 14.248 3.47559 14.4855 3.74509C14.4855 3.74509 14.7225 4.01459 14.8135 4.36359C14.8135 4.36359 15.1665 5.74559 15.1665 8.00009C15.1665 8.00009 15.1665 10.2551 14.813 11.6381C14.813 11.6381 14.723 11.9856 14.4855 12.2551C14.4855 12.2551 14.248 12.5251 13.9075 12.6611C13.9075 12.6611 12.5325 13.1861 10.2045 13.3826C10.2045 13.3826 9.0535 13.4801 8.1695 13.4751C8.1695 13.4751 7.2795 13.4801 6.1285 13.3826C6.1285 13.3826 3.8 13.1861 2.4185 12.6576C2.4185 12.6576 2.085 12.5246 1.8475 12.2551C1.8475 12.2551 1.6105 11.9856 1.5195 11.6366C1.5195 11.6366 1.1665 10.2546 1.1665 8.00009C1.1665 8.00009 1.1665 5.74509 1.5195 4.36359L1.52 4.36209ZM2.488 4.61309C2.488 4.61309 2.1665 5.87309 2.1665 8.00009C2.1665 8.00009 2.1665 10.1291 2.4885 11.3886C2.4885 11.3886 2.5185 11.5036 2.5985 11.5941C2.5985 11.5941 2.678 11.6846 2.79 11.7296C2.79 11.7296 4.025 12.2016 6.2125 12.3861C6.2125 12.3861 7.319 12.4796 8.164 12.4751C8.164 12.4751 9.014 12.4801 10.1205 12.3861C10.1205 12.3861 12.308 12.2011 13.5505 11.7266C13.5505 11.7266 13.6555 11.6846 13.735 11.5941C13.735 11.5941 13.815 11.5041 13.845 11.3871C13.845 11.3871 14.1665 10.1291 14.1665 8.00009C14.1665 8.00009 14.1665 5.87109 13.8445 4.61159C13.8445 4.61159 13.8145 4.49659 13.7345 4.40609C13.7345 4.40609 13.655 4.31559 13.543 4.27059C13.543 4.27059 12.308 3.79859 10.1205 3.61409C10.1205 3.61409 9.014 3.52059 8.169 3.52509C8.169 3.52509 7.319 3.52009 6.2125 3.61409C6.2125 3.61409 4.025 3.79909 2.7825 4.27359C2.7825 4.27359 2.6775 4.31559 2.598 4.40609C2.598 4.40609 2.5185 4.49659 2.488 4.61309Z" fill="#FF6100"/>
</svg>
