<svg width="16" height="17" viewBox="0 0 16 17" fill="none" xmlns="http://www.w3.org/2000/svg">
<path fill-rule="evenodd" clip-rule="evenodd" d="M7.2775 10.9161C7.2022 10.9663 7.11467 10.9952 7.02426 10.9996C6.93384 11.004 6.84393 10.9837 6.76412 10.941C6.6843 10.8983 6.61758 10.8347 6.57106 10.7571C6.52455 10.6794 6.49999 10.5906 6.5 10.5001V6.50007C6.49999 6.40955 6.52455 6.32073 6.57106 6.24307C6.61758 6.16541 6.6843 6.10184 6.76412 6.05914C6.84393 6.01643 6.93384 5.9962 7.02426 6.00059C7.11467 6.00498 7.2022 6.03384 7.2775 6.08408L10.2775 8.08407C10.346 8.12974 10.4021 8.1916 10.441 8.26417C10.4798 8.33674 10.5001 8.41777 10.5001 8.50007C10.5001 8.58238 10.4798 8.66341 10.441 8.73598C10.4021 8.80855 10.346 8.87041 10.2775 8.91608L7.2775 10.9161ZM9.0985 8.50007L7.5 9.56607V7.43458L9.0985 8.50007Z" fill="#FF6100"/>
<path fill-rule="evenodd" clip-rule="evenodd" d="M1.3535 4.86209C1.3535 4.86209 1.4435 4.51459 1.681 4.24509C1.681 4.24509 1.9185 3.97559 2.259 3.83909C2.259 3.83909 3.634 3.31409 5.962 3.11759C5.962 3.11759 7.113 3.02009 7.997 3.02509C7.997 3.02509 8.887 3.02009 10.038 3.11759C10.038 3.11759 12.3665 3.31409 13.748 3.84259C13.748 3.84259 14.0815 3.97559 14.319 4.24509C14.319 4.24509 14.556 4.51459 14.647 4.86359C14.647 4.86359 15 6.24559 15 8.50009C15 8.50009 15 10.7551 14.6465 12.1381C14.6465 12.1381 14.5565 12.4856 14.319 12.7551C14.319 12.7551 14.0815 13.0251 13.741 13.1611C13.741 13.1611 12.366 13.6861 10.038 13.8826C10.038 13.8826 8.887 13.9801 8.003 13.9751C8.003 13.9751 7.113 13.9801 5.962 13.8826C5.962 13.8826 3.6335 13.6861 2.252 13.1576C2.252 13.1576 1.9185 13.0246 1.681 12.7551C1.681 12.7551 1.444 12.4856 1.353 12.1366C1.353 12.1366 1 10.7546 1 8.50009C1 8.50009 1 6.24509 1.353 4.86359L1.3535 4.86209ZM2.3215 5.11309C2.3215 5.11309 2 6.37309 2 8.50009C2 8.50009 2 10.6291 2.322 11.8886C2.322 11.8886 2.352 12.0036 2.432 12.0941C2.432 12.0941 2.5115 12.1846 2.6235 12.2296C2.6235 12.2296 3.8585 12.7016 6.046 12.8861C6.046 12.8861 7.1525 12.9796 7.9975 12.9751C7.9975 12.9751 8.8475 12.9801 9.954 12.8861C9.954 12.8861 12.1415 12.7011 13.384 12.2266C13.384 12.2266 13.489 12.1846 13.5685 12.0941C13.5685 12.0941 13.6485 12.0041 13.6785 11.8871C13.6785 11.8871 14 10.6291 14 8.50009C14 8.50009 14 6.37109 13.678 5.11159C13.678 5.11159 13.648 4.99659 13.568 4.90609C13.568 4.90609 13.4885 4.81559 13.3765 4.77059C13.3765 4.77059 12.1415 4.29859 9.954 4.11409C9.954 4.11409 8.8475 4.02059 8.0025 4.02509C8.0025 4.02509 7.1525 4.02009 6.046 4.11409C6.046 4.11409 3.8585 4.29909 2.616 4.77359C2.616 4.77359 2.511 4.81559 2.4315 4.90609C2.4315 4.90609 2.352 4.99659 2.3215 5.11309Z" fill="#FF6100"/>
</svg>
