<svg width="16" height="17" viewBox="0 0 16 17" fill="none" xmlns="http://www.w3.org/2000/svg">
<path fill-rule="evenodd" clip-rule="evenodd" d="M7.27774 10.9161C7.20244 10.9663 7.11492 10.9952 7.0245 10.9996C6.93409 11.004 6.84418 10.9837 6.76436 10.941C6.68455 10.8983 6.61782 10.8347 6.57131 10.7571C6.52479 10.6794 6.50023 10.5906 6.50024 10.5001V6.50007C6.50023 6.40955 6.52479 6.32073 6.57131 6.24307C6.61782 6.16541 6.68455 6.10184 6.76436 6.05914C6.84418 6.01643 6.93409 5.9962 7.0245 6.00059C7.11492 6.00498 7.20244 6.03384 7.27774 6.08408L10.2777 8.08407C10.3462 8.12974 10.4024 8.1916 10.4412 8.26417C10.48 8.33674 10.5004 8.41777 10.5004 8.50007C10.5004 8.58238 10.48 8.66341 10.4412 8.73598C10.4024 8.80855 10.3462 8.87041 10.2777 8.91608L7.27774 10.9161ZM9.09874 8.50007L7.50024 9.56607V7.43458L9.09874 8.50007Z" fill="black"/>
<path fill-rule="evenodd" clip-rule="evenodd" d="M1.35374 4.86209C1.35374 4.86209 1.44374 4.51459 1.68124 4.24509C1.68124 4.24509 1.91874 3.97559 2.25924 3.83909C2.25924 3.83909 3.63424 3.31409 5.96224 3.11759C5.96224 3.11759 7.11324 3.02009 7.99724 3.02509C7.99724 3.02509 8.88724 3.02009 10.0382 3.11759C10.0382 3.11759 12.3667 3.31409 13.7482 3.84259C13.7482 3.84259 14.0817 3.97559 14.3192 4.24509C14.3192 4.24509 14.5562 4.51459 14.6472 4.86359C14.6472 4.86359 15.0002 6.24559 15.0002 8.50009C15.0002 8.50009 15.0002 10.7551 14.6467 12.1381C14.6467 12.1381 14.5567 12.4856 14.3192 12.7551C14.3192 12.7551 14.0817 13.0251 13.7412 13.1611C13.7412 13.1611 12.3662 13.6861 10.0382 13.8826C10.0382 13.8826 8.88724 13.9801 8.00324 13.9751C8.00324 13.9751 7.11324 13.9801 5.96224 13.8826C5.96224 13.8826 3.63374 13.6861 2.25224 13.1576C2.25224 13.1576 1.91874 13.0246 1.68124 12.7551C1.68124 12.7551 1.44424 12.4856 1.35324 12.1366C1.35324 12.1366 1.00024 10.7546 1.00024 8.50009C1.00024 8.50009 1.00024 6.24509 1.35324 4.86359L1.35374 4.86209ZM2.32174 5.11309C2.32174 5.11309 2.00024 6.37309 2.00024 8.50009C2.00024 8.50009 2.00024 10.6291 2.32224 11.8886C2.32224 11.8886 2.35224 12.0036 2.43224 12.0941C2.43224 12.0941 2.51174 12.1846 2.62374 12.2296C2.62374 12.2296 3.85874 12.7016 6.04624 12.8861C6.04624 12.8861 7.15274 12.9796 7.99774 12.9751C7.99774 12.9751 8.84774 12.9801 9.95424 12.8861C9.95424 12.8861 12.1417 12.7011 13.3842 12.2266C13.3842 12.2266 13.4892 12.1846 13.5687 12.0941C13.5687 12.0941 13.6487 12.0041 13.6787 11.8871C13.6787 11.8871 14.0002 10.6291 14.0002 8.50009C14.0002 8.50009 14.0002 6.37109 13.6782 5.11159C13.6782 5.11159 13.6482 4.99659 13.5682 4.90609C13.5682 4.90609 13.4887 4.81559 13.3767 4.77059C13.3767 4.77059 12.1417 4.29859 9.95424 4.11409C9.95424 4.11409 8.84774 4.02059 8.00274 4.02509C8.00274 4.02509 7.15274 4.02009 6.04624 4.11409C6.04624 4.11409 3.85874 4.29909 2.61624 4.77359C2.61624 4.77359 2.51124 4.81559 2.43174 4.90609C2.43174 4.90609 2.35224 4.99659 2.32174 5.11309Z" fill="black"/>
</svg>
